<?xml version="1.0" encoding="UTF-8"?><svg xmlns="http://www.w3.org/2000/svg" xmlns:xlink="http://www.w3.org/1999/xlink" height="487.7" preserveAspectRatio="xMidYMid" version="1.1" viewBox="-115.1 -114.7 485.7 487.7" width="485.7" zoomAndPan="magnify">
 <defs>
  <filter filterUnits="objectBoundingBox" height="200%" id="filter-1" width="200%" x="-50%" xlink:actuate="onLoad" xlink:show="other" xlink:type="simple" xmlns:xlink="http://www.w3.org/1999/xlink" y="-50%">
   <feGaussianBlur in="SourceGraphic" result="blur" stdDeviation="3"/>
  </filter>
  <linearGradient id="linearGradient-2" x1="49.998%" x2="49.998%" xlink:actuate="onLoad" xlink:show="other" xlink:type="simple" xmlns:xlink="http://www.w3.org/1999/xlink" y1="99.993%" y2="-.0055884%">
   <stop offset="0" stop-color="#20B038"/>
   <stop offset="1" stop-color="#60D66A"/>
  </linearGradient>
 </defs>
 <g>
  <g transform="translate(6 7)">
   <path d="m0.29672 244l17.155-62.59c-10.548-18.32-16.17-39.13-16.112-60.4 0-66.648 54.248-120.84 120.9-120.84 32.34 0.00171 62.71 12.579 85.49 35.414 22.83 22.835 35.41 53.205 35.35 85.486 0 66.65-54.25 120.84-120.9 120.84h-0.06c-20.22 0-40.103-5.1-57.78-14.72l-64.043 16.81h-0.00028zm67.057-38.72l3.651 2.21c15.417 9.15 33.095 13.96 51.115 14.02h0.06c55.35 0 100.44-45.03 100.44-100.44 0-26.833-10.43-52.044-29.38-71.055-18.95-19.01-44.22-29.442-71.06-29.442-55.406 0-100.5 45.033-100.5 100.44 0.003 18.96 5.277 37.44 15.362 53.44l2.376 3.83-10.142 37.03 38.078-10.03z" fill-opacity=".24" filter="url(#filter-1)"/>
   <path d="m5.7811 237.54l16.37-59.7c-10.074-17.46-15.397-37.32-15.397-57.58 0.0001-63.537 51.744-115.22 115.22-115.22 30.86-0.003 59.76 12.017 81.51 33.768 21.75 21.75 33.72 50.713 33.72 81.502 0 63.54-51.75 115.23-115.23 115.23h-0.05c-19.29 0-38.238-4.87-55.066-14.03l-61.073 16.03h0.0001z" fill="url(#linearGradient-2)"/>
   <path d="m1.6027 241.72l16.942-61.82c-10.417-18.09-15.969-38.64-15.912-59.64 0-65.826 53.575-119.34 119.4-119.34 31.94-0.00419 61.93 12.417 84.43 34.968 22.55 22.552 34.97 52.545 34.91 84.422 0 65.83-53.57 119.35-119.4 119.35h-0.05c-19.98 0-39.611-5.04-57.069-14.54l-63.248 16.6h-0.0003zm66.224-38.24l3.606 2.18c15.226 9.04 32.687 13.79 50.487 13.85h0.05c54.67 0 99.2-44.48 99.2-99.2 0-26.496-10.3-51.395-29.02-70.169s-43.67-29.077-70.18-29.077c-54.715 0-99.246 44.474-99.246 99.196 0 18.71 5.208 36.97 15.168 52.77l2.347 3.78-10.017 36.57 37.605-9.9z" fill="#fff"/>
   <path d="m92.154 70.289c-2.233-4.98-4.579-5.095-6.697-5.152-1.717-0.057-3.721-0.057-5.724-0.057s-5.209 0.744-7.956 3.72c-2.748 2.977-10.418 10.189-10.418 24.899 0 14.651 10.704 28.851 12.192 30.851s20.663 33.08 50.939 45.05c25.19 9.96 30.34 7.95 35.78 7.44 5.49-0.52 17.63-7.21 20.15-14.2 2.46-6.98 2.46-12.93 1.71-14.19-0.74-1.26-2.75-2.01-5.72-3.49-2.98-1.49-17.63-8.7-20.38-9.73s-4.75-1.49-6.7 1.48c-2 2.98-7.72 9.68-9.44 11.68s-3.49 2.23-6.47 0.74c-2.97-1.48-12.59-4.63-23.98-14.82-8.87-7.9-14.882-17.69-16.599-20.66-1.718-2.98-0.172-4.58 1.316-6.07 1.316-1.32 2.976-3.49 4.465-5.21 1.488-1.72 1.998-2.975 2.978-4.979 0.97-2.003 0.51-3.72-0.23-5.208-0.75-1.489-6.583-16.199-9.216-22.094z" fill="#fff"/>
  </g>
 </g>
</svg>